<?xml version="1.0" encoding="UTF-8" standalone="no"?>
<!-- Created with Inkscape (http://www.inkscape.org/) -->

<svg
   xmlns:dc="http://purl.org/dc/elements/1.1/"
   xmlns:cc="http://creativecommons.org/ns#"
   xmlns:rdf="http://www.w3.org/1999/02/22-rdf-syntax-ns#"
   xmlns:svg="http://www.w3.org/2000/svg"
   xmlns="http://www.w3.org/2000/svg"
   xmlns:sodipodi="http://sodipodi.sourceforge.net/DTD/sodipodi-0.dtd"
   xmlns:inkscape="http://www.inkscape.org/namespaces/inkscape"
   width="130.02631mm"
   height="293.07651mm"
   viewBox="0 0 130.02631 293.07651"
   version="1.1"
   id="svg8"
   inkscape:version="0.92.3 (2405546, 2018-03-11)"
   sodipodi:docname="Embarresed guy.svg">
  <title
     id="title108">Embarresed guy</title>
  <defs
     id="defs2" />
  <sodipodi:namedview
     id="base"
     pagecolor="#ffffff"
     bordercolor="#666666"
     borderopacity="1.0"
     inkscape:pageopacity="0.0"
     inkscape:pageshadow="2"
     inkscape:zoom="0.35355339"
     inkscape:cx="-1108.9788"
     inkscape:cy="236.47709"
     inkscape:document-units="mm"
     inkscape:current-layer="layer1"
     showgrid="false"
     fit-margin-top="0"
     fit-margin-left="0"
     fit-margin-right="0"
     fit-margin-bottom="0"
     inkscape:window-width="1600"
     inkscape:window-height="845"
     inkscape:window-x="0"
     inkscape:window-y="27"
     inkscape:window-maximized="1" />
  <metadata
     id="metadata5">
    <rdf:RDF>
      <cc:Work
         rdf:about="">
        <dc:format>image/svg+xml</dc:format>
        <dc:type
           rdf:resource="http://purl.org/dc/dcmitype/StillImage" />
        <dc:title>Embarresed guy</dc:title>
        <dc:date>2022</dc:date>
        <dc:creator>
          <cc:Agent>
            <dc:title>Doodleguy</dc:title>
          </cc:Agent>
        </dc:creator>
        <dc:rights>
          <cc:Agent>
            <dc:title>public domain</dc:title>
          </cc:Agent>
        </dc:rights>
        <cc:license
           rdf:resource="http://creativecommons.org/publicdomain/zero/1.0/" />
      </cc:Work>
      <cc:License
         rdf:about="http://creativecommons.org/publicdomain/zero/1.0/">
        <cc:permits
           rdf:resource="http://creativecommons.org/ns#Reproduction" />
        <cc:permits
           rdf:resource="http://creativecommons.org/ns#Distribution" />
        <cc:permits
           rdf:resource="http://creativecommons.org/ns#DerivativeWorks" />
      </cc:License>
    </rdf:RDF>
  </metadata>
  <g
     inkscape:groupmode="layer"
     id="layer2"
     inkscape:label="bund"
     transform="translate(-31.286321,-2.5278266)" />
  <g
     inkscape:label="Layer 1"
     inkscape:groupmode="layer"
     id="layer1"
     transform="translate(-31.286321,-2.5278266)">
    <g
       id="g106"
       transform="matrix(0,-1.8246834,1.8246834,0,-179.11271,323.26759)">
      <path
         transform="scale(0.26458333)"
         inkscape:connector-curvature="0"
         id="path37"
         d="m 571.16517,520.11896 c -7.82077,0.15092 -15.69035,0.63997 -23.35225,2.29243 -7.77909,1.94797 -14.59296,6.59437 -20.55345,11.81725 -5.94003,5.40015 -11.39829,11.64851 -14.56522,19.10569 -1.16789,2.65777 -1.54621,5.56693 -1.43029,8.45023 0.0376,6.75786 -0.0981,13.53587 0.47022,20.27547 0.66053,7.371 3.36417,14.35871 6.17812,21.13694 3.83494,9.03548 9.45425,17.22346 16.10117,24.41749 6.98208,7.56697 14.60641,14.6646 23.31231,20.21594 3.56113,2.15312 7.50113,4.18341 11.75473,4.23382 1.64473,0.0186 2.40558,-1.58295 3.46145,-2.5139 2.09724,-1.40251 4.77817,-0.78097 7.15443,-0.99269 5.53837,-0.098 11.08641,0.0708 16.61894,-0.18373 0.44242,-0.54994 -0.77977,-0.65922 -1.08633,-0.92528 -2.50128,-1.20515 -5.38445,-1.97243 -7.33126,-4.04618 -1.26044,-1.30701 -0.14457,-3.26647 1.23521,-3.94251 1.69606,-0.9433 3.73147,-0.21241 5.51375,0.0835 5.21571,1.1657 10.24971,3.12404 15.54049,3.94043 3.32539,0.16492 6.57009,-0.89551 9.83372,-1.36192 2.93513,-0.60168 5.937,-0.86051 8.88645,-1.33773 0.88117,-0.31491 0.0884,-1.2701 -0.35133,-1.60533 -1.15408,-1.31408 -2.79488,-1.96506 -4.46255,-2.3198 -5.14669,-1.98631 -9.90485,-4.83303 -14.92132,-7.10863 -1.19875,-0.51412 -2.06914,-1.79063 -1.66411,-3.11395 0.46907,-1.65293 1.39171,-3.29883 2.82523,-4.28306 1.90612,-0.83678 4.01533,-0.0237 5.9743,0.16593 4.59184,0.7354 9.10174,1.91978 13.64019,2.92436 0.68334,0.28982 1.69743,-0.26633 1.20182,-1.05746 -1.66314,-2.33161 -4.6666,-3.04655 -6.84114,-4.7624 -1.38175,-1.14337 -2.82628,-2.57023 -4.7537,-2.52642 -2.89918,-0.79264 -5.67379,-2.1405 -8.12818,-3.87121 -0.67864,-0.32436 -0.55169,-1.49531 -1.46862,-1.41713 -2.20864,-0.32467 -4.52574,0.0123 -6.67278,-0.64526 -0.55482,-0.1318 -0.82079,-0.7583 -0.33915,-1.14199 1.69768,-2.00846 4.61318,-1.63996 6.95991,-1.58866 3.04207,0.16523 5.73365,1.8785 8.7854,2.13039 3.87582,0.4848 7.82427,0.95082 11.72465,0.5526 0.81745,-0.31039 -0.0271,-1.18043 -0.4703,-1.42652 -3.11774,-2.02311 -6.55777,-3.50037 -9.6912,-5.50307 -4.0972,-2.59507 -8.23628,-5.16157 -12.71407,-7.07143 -4.25696,-1.88163 -8.66496,-3.55131 -13.31635,-4.09789 -0.94002,-0.12077 -2.02704,-1.06446 -1.40113,-2.06135 1.18263,-1.77799 3.48432,-2.27861 5.41809,-2.80853 6.19348,-1.30401 12.67224,-0.62969 18.70243,1.14616 1.04347,0.24746 1.66506,1.09772 2.30832,1.86064 2.00017,1.05858 4.36621,1.15692 6.42651,2.10379 5.04444,1.77155 9.7176,4.5777 14.93732,5.83412 0.71169,0.24283 1.85378,10e-4 1.66306,-0.97676 -0.505,-2.88041 -2.26129,-5.36918 -3.86847,-7.74776 -1.50507,-1.93399 -3.11042,-4.03915 -5.39057,-5.08194 -2.25081,-0.32867 -3.51168,-2.58715 -5.38333,-3.65578 -0.85573,-0.60285 -2.01574,-0.44228 -2.75267,-1.27529 -1.171,-1.05079 -2.39794,-2.18858 -4.06816,-2.28018 -3.5353,-0.82636 -6.74785,-2.76576 -9.66786,-4.88623 -1.17515,-0.93711 -2.30206,-2.27289 -2.63496,-3.73973 0.94707,-2.63535 3.1614,-5.04033 6.07413,-5.33704 3.37468,-0.39645 6.63416,1.09525 9.92853,1.67425 1.77047,0.28721 3.57845,0.90863 5.37647,0.72417 0.51141,-0.56167 -0.51589,-1.22913 -0.71655,-1.72821 -3.06237,-4.21533 -7.58735,-7.00077 -11.632,-10.16518 -2.7121,-2.13343 -5.74749,-3.9158 -8.12756,-6.43058 1.36739,-1.32955 3.22588,-2.40314 5.13146,-2.75601 2.50981,-0.22421 4.78599,1.28878 7.30134,1.20077 0.83072,0.003 2.46173,0.0511 2.3539,-1.16111 -0.18852,-1.34465 -1.36182,-2.32941 -2.06275,-3.43849 -2.37533,-2.86283 -4.72541,-5.73262 -6.81574,-8.80509 -3.8525,-5.0062 -10.07972,-7.21092 -15.91965,-8.95189 -9.17679,-2.53847 -18.68704,-4.29027 -28.23905,-4.15505 z m -0.76909,17.02197 c 2.35523,-10e-4 4.14404,1.98446 4.89249,4.07123 1.949,4.44919 1.89442,9.7429 -0.38472,14.08648 -1.79901,4.00739 -5.63241,7.06807 -6.17478,11.61363 -0.23308,0.72959 -0.12224,1.908 -0.90777,2.27805 -0.69153,-0.4999 -0.21907,-1.62294 -0.1976,-2.3405 0.89996,-4.32004 3.8004,-7.79321 5.62648,-11.71606 1.41231,-3.8517 1.36574,-8.21661 0.10192,-12.10236 -0.56735,-1.53386 -1.62143,-3.38284 -3.42144,-3.5324 -2.10995,0.33836 -3.06049,2.70999 -3.2096,4.59856 -0.0967,1.14929 -0.4772,2.2523 -1.27,3.09725 -1.1188,2.6651 -0.0868,5.83208 -1.5434,8.41932 -1.54429,2.62936 -3.43035,5.16471 -4.31541,8.11497 -1.09574,2.64668 -4.60149,4.23246 -7.17784,2.72972 -6.21487,-3.29582 -12.03618,-7.3148 -17.37998,-11.89155 -2.06251,-1.6469 -3.75633,-4.10517 -3.79255,-6.78356 0.70712,-2.65974 3.60956,-3.7321 5.93992,-4.57824 7.08001,-2.30079 14.59454,-2.51655 21.95421,-3.26273 3.28672,-0.264 6.28189,-1.68866 9.3883,-2.64736 0.61085,-0.15937 1.24523,-0.15573 1.87177,-0.15445 z m -47.60344,19.66111 c 0.65356,0.94375 -0.0304,2.22808 0.0849,3.30908 0.004,2.85689 2.62715,4.99901 5.23373,5.59897 3.74106,1.02546 7.71208,1.10525 11.34613,2.43355 0.42708,0.26349 -0.59974,0.1897 -0.75066,0.24558 -4.58129,0.215 -9.20947,-0.14646 -13.68437,-1.20912 -2.55806,-0.55524 -4.98943,-2.69738 -4.96937,-5.46574 -0.14133,-2.04544 1.2241,-3.73721 2.73966,-4.91232 z m 11.95973,22.08874 c 2.15099,0.09 3.96611,1.46927 5.9119,2.25286 3.99989,1.99977 8.14782,3.86513 11.94283,6.17412 -0.81822,1.88754 -1.491,3.84886 -1.69419,5.91337 -0.7586,4.84785 -0.59115,9.81628 -1.67716,14.61005 -0.76599,3.14989 -2.89993,5.85168 -5.31304,7.95808 -1.57432,1.11003 -4.12974,1.95674 -5.67863,0.37846 -0.87691,-1.41836 -0.75656,-3.22627 -1.48636,-4.72815 -2.48746,-5.84191 -3.52797,-12.13913 -4.58315,-18.36197 -0.47339,-3.76705 -1.28212,-7.66205 -0.3156,-11.40256 0.327,-1.36489 1.30838,-2.8872 2.8934,-2.79426 z m 28.35593,11.0668 c 1.65767,0.77309 2.46671,2.67298 2.4499,4.43646 0.27945,6.29823 -0.62634,12.77761 -3.37031,18.5059 -1.16704,2.07617 -2.88201,3.82273 -3.9046,5.97987 -0.32236,0.56152 -0.9286,1.45657 -1.66376,1.20112 -0.78295,-0.90195 0.39542,-1.94095 0.71448,-2.79427 1.81441,-3.10711 4.54423,-5.92519 4.83927,-9.69002 0.17843,-3.04816 0.58445,-6.07313 1.27278,-9.05554 0.53453,-2.58431 -0.28265,-5.13669 -0.66474,-7.67042 0.0106,-0.27916 -0.10759,-0.91052 0.32698,-0.9131 z"
         style="opacity:1;vector-effect:none;fill:#ffe6d5;fill-opacity:1;stroke:none;stroke-width:0.24569182;stroke-linecap:round;stroke-linejoin:miter;stroke-miterlimit:4;stroke-dasharray:none;stroke-dashoffset:0;stroke-opacity:0" />
      <path
         transform="scale(0.26458333)"
         inkscape:connector-curvature="0"
         id="path39"
         d="m 351.74932,452.44914 c -5.20675,0.45205 -10.18075,2.39741 -14.91971,4.50521 -3.8535,1.88813 -7.35519,4.4094 -11.22243,6.27163 -3.84963,2.38645 -8.01316,4.9692 -9.81978,9.34963 -5.09026,11.21091 -7.29546,23.48133 -11.87304,34.86816 -2.69256,5.97361 -6.32535,11.52027 -10.34717,16.68994 -0.48453,0.86896 -1.96864,1.36816 -1.86914,2.46778 0.43381,2.08151 2.46496,3.08173 4.37353,3.43847 1.72248,0.61562 4.21195,0.54237 5.18067,2.37452 0.43183,2.43544 -1.28347,4.60577 -1.95215,6.85937 -4.55829,12.51961 -4.63817,26.24759 -2.66468,39.28846 1.82225,9.75627 4.62694,19.40679 8.92396,28.37267 2.1203,3.81166 4.70421,7.33947 6.62383,11.26992 1.81815,3.58094 4.22986,6.8224 6.11933,10.35459 0.38046,1.34963 0.57576,2.8282 1.57471,3.90674 1.24304,3.43859 0.2348,7.29245 1.35937,10.7544 1.31613,2.00593 4.00208,2.3922 6.13672,3.05322 5.37997,1.17286 11.0359,2.03959 16.50586,1.02881 0.89594,-0.21155 1.59784,-1.23007 0.74645,-1.95707 -2.14368,-2.70888 -4.15494,-5.55018 -5.22959,-8.87075 -2.72338,-6.83508 -4.2306,-14.21872 -8.01977,-20.59023 -1.99031,-2.4635 -3.06507,-5.48365 -3.68953,-8.54943 -2.08725,-8.84827 -3.29917,-17.88209 -3.75409,-26.95984 -1.06187,-12.9994 -3.40562,-25.91529 -3.60473,-38.96277 0.004,-1.92574 0.07,-4.35723 2.03124,-5.39214 4.32047,-2.87194 9.642,-3.67451 14.06445,-6.32959 0.75056,-0.31216 0.84554,-1.69844 -0.19384,-1.52978 -3.49677,-0.33078 -6.69971,-2.13599 -9.86428,-3.56385 -1.51411,-0.92664 -3.85924,-1.60208 -4.28806,-3.57531 0.19572,-1.85617 1.21436,-3.56606 1.25341,-5.48389 1.35411,-6.17708 4.60238,-11.73139 6.72524,-17.66806 2.2754,-6.06415 4.46654,-12.16664 6.32885,-18.36755 1.74175,-4.06614 4.67651,-7.4697 6.65421,-11.41836 3.0169,-5.12764 7.45437,-9.18546 10.91914,-13.98402 0.59917,-0.63929 0.17988,-1.66888 -0.73388,-1.57617 -0.48884,-0.0582 -0.98283,-0.0851 -1.4751,-0.0747 z m -42.75537,65.3711 c 0.78061,1.63102 -0.34119,3.80743 0.77197,5.33935 0.85756,1.08785 2.63924,1.94051 3.72217,0.66211 0.99568,-1.07866 -0.11527,-2.98315 0.90478,-3.9624 1.54459,0.35002 1.91089,2.3583 2.00391,3.71191 0.14857,1.98002 -2.00615,3.06123 -3.45068,3.94092 -1.336,0.83396 -3.1174,0.89824 -4.1543,-0.43896 -2.37725,-2.39102 -2.61435,-6.61853 -0.19531,-9.0459 0.11853,-0.0846 0.24559,-0.20267 0.39746,-0.20703 z"
         style="opacity:1;vector-effect:none;fill:#ffe6d5;fill-opacity:1;stroke:none;stroke-width:0.34488189;stroke-linecap:round;stroke-linejoin:miter;stroke-miterlimit:4;stroke-dasharray:none;stroke-dashoffset:0;stroke-opacity:0" />
      <path
         transform="scale(0.26458333)"
         inkscape:connector-curvature="0"
         id="path41"
         d="m 75.516791,482.25771 c -2.526822,0.0954 -4.597975,2.03111 -5.545812,4.27233 -0.945831,1.9631 -1.430963,4.49705 -0.09579,6.40736 1.151957,1.69395 2.550755,3.23289 3.38546,5.12891 1.271115,2.70368 2.376589,5.60738 2.450721,8.62866 -0.02303,0.50654 -0.0852,1.48274 -0.775146,1.47632 -0.857469,-1.02253 -0.553584,-2.49455 -0.784408,-3.73428 -0.23544,-2.63492 -1.307752,-5.26642 -3.192887,-7.14756 -1.405906,-1.34378 -4.076399,-1.52665 -5.238037,0.22363 -0.684935,1.06551 -0.437595,2.42031 -0.347657,3.61426 0.584,2.82891 2.066304,5.36977 2.933838,8.11206 0.791682,2.29576 1.368327,4.65558 2.080078,6.98438 0.01645,0.23418 0.222718,0.95457 -0.188232,0.95459 -1.187604,-1.06259 -1.091194,-2.85656 -1.837461,-4.1927 -1.153227,-2.48005 -4.138809,-4.21488 -6.849062,-3.42058 -1.636111,0.57754 -1.89381,2.60581 -1.514649,4.07812 0.341845,1.77537 1.638004,3.22403 3.245826,3.98867 2.389861,1.53922 4.813348,3.33212 6.253442,5.84776 0.197904,0.48967 0.384501,1.2172 -0.02612,1.61425 -1.387336,-0.69135 -2.37672,-1.9708 -3.53072,-2.97415 -1.287952,-1.12161 -2.410497,-2.59734 -4.057415,-3.20089 -0.914514,-0.32164 -1.761284,0.44667 -1.875,1.333 -0.286281,1.5025 -0.325667,3.08039 -0.08057,4.58985 0.700272,2.37671 3.163298,3.42321 4.907226,4.91137 1.176307,1.04335 2.554827,2.19549 2.854004,3.81617 -0.136724,0.89805 -1.303636,0.67457 -1.806397,0.229 -1.464038,-0.98873 -2.073095,-3.11052 -3.973144,-3.45093 -0.989737,-0.27829 -1.950845,0.48581 -2.080566,1.46973 -0.318711,2.24316 0.782319,4.38898 1.752046,6.33802 3.118552,5.87257 8.114501,10.37979 12.62393,15.14977 0.889079,1.03103 2.201813,2.27249 1.763428,3.78223 -1.007899,3.25097 -1.562619,6.74548 -0.987793,10.13086 0.285913,1.88048 2.219635,2.78299 3.874755,3.18725 2.129504,0.3978 4.0806,-0.88073 5.942938,-1.70637 2.55924,-1.37296 5.291541,-2.75083 7.095637,-5.10491 1.413528,-1.92949 1.173705,-4.49918 0.506866,-6.66013 -1.037206,-3.31737 -2.051282,-6.65743 -2.393492,-10.12444 -0.606271,-5.21369 -0.474018,-10.49604 0.370611,-15.68372 0.229021,-1.85509 0.567351,-4.00584 -0.755225,-5.561 -2.702304,-3.64014 -6.545641,-6.60109 -8.036985,-11.02537 -1.112841,-3.85971 -1.831535,-7.8511 -2.071869,-11.85801 -0.187697,-3.78033 1.250483,-7.36516 1.687075,-11.0822 0.29713,-2.31043 0.539307,-4.87594 -0.660008,-6.98169 -1.086747,-1.54133 -3.187002,-2.36234 -5.023438,-2.35962 z"
         style="opacity:1;vector-effect:none;fill:#ffe6d5;fill-opacity:1;stroke:none;stroke-width:0.17244095;stroke-linecap:round;stroke-linejoin:miter;stroke-miterlimit:4;stroke-dasharray:none;stroke-dashoffset:0;stroke-opacity:0" />
      <path
         transform="scale(0.26458333)"
         inkscape:connector-curvature="0"
         id="path43"
         d="m 59.38379,540.69194 c -0.443071,-0.003 -0.628301,0.49492 -0.593294,0.86999 0.04517,0.94793 0.392423,1.85201 0.738306,2.72528 0.303768,0.58608 0.739045,1.2084 1.408948,1.38952 0.536903,0.12088 1.114692,-0.2493 1.202392,-0.79912 0.186253,-0.96117 -0.198614,-1.94381 -0.728427,-2.73313 -0.458633,-0.59595 -1.033109,-1.16227 -1.754819,-1.41698 -0.08885,-0.024 -0.180874,-0.0386 -0.273106,-0.0356 z"
         style="opacity:1;vector-effect:none;fill:#ffe6d5;fill-opacity:1;stroke:none;stroke-width:0.06096708;stroke-linecap:round;stroke-linejoin:miter;stroke-miterlimit:4;stroke-dasharray:none;stroke-dashoffset:0;stroke-opacity:0" />
      <path
         transform="scale(0.26458333)"
         inkscape:connector-curvature="0"
         id="path45"
         d="m 64.834692,548.29429 c -1.101083,-0.019 -2.259208,0.14504 -3.201488,0.75035 -0.558186,0.34593 -0.866999,1.05927 -0.646685,1.69327 0.295405,0.95734 1.150728,1.58586 1.92524,2.14928 0.633402,0.42557 1.383122,0.87563 2.179467,0.68312 0.842067,-0.23793 1.343326,-1.02679 1.849681,-1.68033 0.483611,-0.71534 1.054253,-1.44782 1.161996,-2.33046 0.05876,-0.50038 -0.344678,-0.90784 -0.792388,-1.0516 -0.782737,-0.29616 -1.658097,-0.18485 -2.475823,-0.21363 z"
         style="opacity:1;vector-effect:none;fill:#ffe6d5;fill-opacity:1;stroke:none;stroke-width:0.06096708;stroke-linecap:round;stroke-linejoin:miter;stroke-miterlimit:4;stroke-dasharray:none;stroke-dashoffset:0;stroke-opacity:0" />
      <path
         transform="scale(0.26458333)"
         inkscape:connector-curvature="0"
         id="path47"
         d="m 82.800965,469.16158 c -1.458244,0.25204 -2.678243,1.20224 -3.871807,2.01856 -1.450939,1.12172 -2.933295,2.30189 -3.952115,3.84822 -0.613698,1.09851 -0.563911,2.69029 0.510984,3.49371 1.291524,1.04908 2.885926,1.65576 4.129922,2.77686 1.538574,1.31231 3.086057,2.84954 3.752361,4.81941 0.356236,1.60906 -0.06957,3.26601 -0.27032,4.86371 -0.645167,3.63327 -1.339405,7.29856 -1.257244,11.01028 -0.01677,3.11944 0.24326,6.24786 0.990357,9.28271 0.994743,4.13834 2.712028,8.31681 5.945987,11.21217 1.14468,0.87369 2.345169,1.80593 3.767381,2.15636 1.260483,0.22379 2.435542,-0.52803 3.476148,-1.13524 0.930073,-0.6557 2.013059,-1.36762 2.372502,-2.50853 0.108147,-2.68182 0.785552,-5.28428 1.340435,-7.89714 1.166824,-4.96877 2.458774,-9.97546 2.448424,-15.11609 0.12248,-2.94772 -0.19024,-6.07067 -1.85147,-8.59424 -0.2785,-0.54091 -0.683721,-1.08614 -0.761409,-1.68801 0.469379,-0.32072 0.155015,-1.00624 0.03815,-1.44287 -0.484163,-1.43278 -1.577066,-2.74462 -3.104814,-3.08703 -1.294883,-0.75966 -2.285827,-1.92499 -3.384855,-2.9334 -3.39051,-3.39595 -6.678461,-6.91491 -9.609441,-10.72605 -0.178173,-0.22624 -0.401472,-0.40233 -0.709178,-0.35339 z"
         style="opacity:1;vector-effect:none;fill:#ffe6d5;fill-opacity:1;stroke:none;stroke-width:0.12193416;stroke-linecap:round;stroke-linejoin:miter;stroke-miterlimit:4;stroke-dasharray:none;stroke-dashoffset:0;stroke-opacity:0" />
      <path
         transform="scale(0.26458333)"
         inkscape:connector-curvature="0"
         id="path49"
         d="m 562.43927,542.55738 c -5.07809,0.13174 -10.14371,0.56091 -15.20166,1.01419 -3.10435,0.31467 -6.22218,0.57163 -9.2948,1.12925 -1.75339,0.37262 -3.56077,1.37105 -4.27478,3.09717 -0.44842,1.19503 -0.22933,2.65926 0.70874,3.56384 1.9071,1.97923 4.15224,3.59297 6.37586,5.1936 2.96257,2.01817 5.9296,4.03292 8.95267,5.95937 0.92974,0.50941 1.83768,1.16772 2.90462,1.34056 0.63768,0.11425 1.21896,-0.44836 1.20179,-1.07959 0.11121,-2.19316 -0.29257,-4.3756 -0.38055,-6.55752 -0.11525,-2.03008 -0.12775,-4.14959 0.58013,-6.08848 0.43776,-1.16264 1.46484,-2.14049 2.72571,-2.30334 1.48433,-0.23284 3.09369,-0.0363 4.4375,0.67187 0.433,0.26935 0.88722,0.83855 1.4519,0.55408 0.64426,-0.43568 0.75475,-1.29183 0.96717,-1.98212 0.2824,-1.29167 0.56324,-2.61877 0.46826,-3.94732 0.009,-0.42406 -0.43318,-0.55622 -0.78015,-0.54566 -0.28032,-0.0193 -0.56154,-0.0208 -0.84241,-0.0199 z"
         style="opacity:1;vector-effect:none;fill:#ffffff;fill-opacity:1;stroke:none;stroke-width:0.08622047;stroke-linecap:round;stroke-linejoin:miter;stroke-miterlimit:4;stroke-dasharray:none;stroke-dashoffset:0;stroke-opacity:0" />
      <path
         transform="scale(0.26458333)"
         inkscape:connector-curvature="0"
         id="path51"
         d="m 535.84796,582.91468 c -0.78159,-0.008 -1.72357,0.4025 -1.81531,1.27564 -0.23219,1.73862 0.14227,3.4843 0.34356,5.20761 0.81365,5.4604 1.59903,10.9343 2.82047,16.32184 0.54141,2.18578 1.0915,4.42578 2.26344,6.3729 0.65653,0.95889 1.34083,1.90775 2.11147,2.77782 0.34624,0.16876 0.53748,-0.34066 0.77665,-0.5038 1.04929,-1.15662 2.1664,-2.26162 3.11056,-3.50767 0.97064,-1.42591 1.80596,-3.09148 1.74475,-4.85828 -0.0186,-0.7791 -0.37836,-1.60779 -1.14197,-1.91552 -0.65864,-0.46465 -0.84574,-1.31648 -1.12988,-2.02698 -0.9113,-2.8621 -1.42737,-5.87029 -1.61413,-8.85808 -0.0884,-1.08357 -0.008,-2.1911 0.40881,-3.20576 0.30321,-0.92674 0.92029,-1.71014 1.58765,-2.40613 0.33408,-0.44431 0.78764,-0.91185 0.81872,-1.49182 -0.23475,-0.56597 -0.91947,-0.73023 -1.41803,-0.98713 -2.48543,-0.98407 -5.08751,-1.68414 -7.72723,-2.10284 -0.37757,-0.0518 -0.75774,-0.0972 -1.13953,-0.0918 z"
         style="opacity:1;vector-effect:none;fill:#ffffff;fill-opacity:1;stroke:none;stroke-width:0.08622047;stroke-linecap:round;stroke-linejoin:miter;stroke-miterlimit:4;stroke-dasharray:none;stroke-dashoffset:0;stroke-opacity:0" />
      <path
         transform="scale(0.26458333)"
         inkscape:connector-curvature="0"
         id="path53"
         d="m 559.06409,550.26739 c -0.65275,0.0289 -1.33725,-0.0219 -1.95618,0.22503 -0.52831,0.2003 -0.79087,0.75654 -0.87237,1.28272 -0.12571,0.82072 -0.0754,1.65668 -0.0741,2.48398 0.0326,1.47919 0.13143,2.98479 0.61159,4.39514 0.14846,0.368 0.32227,0.82969 0.74539,0.94583 0.47253,0.0947 0.88534,-0.23493 1.18457,-0.56103 0.72579,-0.74998 1.18652,-1.70617 1.63025,-2.63849 0.59099,-1.32117 1.06808,-2.69288 1.46228,-4.08472 0.0904,-0.40148 0.17263,-0.82973 0.0838,-1.23724 -0.11321,-0.40421 -0.51275,-0.63577 -0.90735,-0.69013 -0.62822,-0.10938 -1.2718,-0.1192 -1.9079,-0.12109 z"
         style="opacity:1;vector-effect:none;fill:#d5e5ff;fill-opacity:1;stroke:none;stroke-width:0.04311024;stroke-linecap:round;stroke-linejoin:miter;stroke-miterlimit:4;stroke-dasharray:none;stroke-dashoffset:0;stroke-opacity:0" />
      <path
         transform="scale(0.26458333)"
         inkscape:connector-curvature="0"
         id="path55"
         d="m 548.02472,589.22539 c -0.41203,0.0103 -0.71665,0.33896 -0.99454,0.60461 -0.49083,0.50909 -0.92063,1.09477 -1.14478,1.77217 -0.31283,0.90703 -0.43134,1.87772 -0.39278,2.83447 0.0573,0.75681 0.22104,1.50205 0.40371,2.23719 0.0704,0.23115 0.15217,0.54948 0.43058,0.59654 0.27656,0.0197 0.42248,-0.27061 0.53122,-0.47844 0.3253,-0.70026 0.55876,-1.43898 0.82318,-2.16345 0.43596,-1.25796 0.86773,-2.53668 0.99536,-3.86928 0.0228,-0.43451 0.0556,-0.91332 -0.17872,-1.30084 -0.10225,-0.16194 -0.28566,-0.24098 -0.47323,-0.23297 z"
         style="opacity:1;vector-effect:none;fill:#d5e5ff;fill-opacity:1;stroke:none;stroke-width:0.03048354;stroke-linecap:round;stroke-linejoin:miter;stroke-miterlimit:4;stroke-dasharray:none;stroke-dashoffset:0;stroke-opacity:0" />
      <path
         transform="scale(0.26458333)"
         inkscape:connector-curvature="0"
         id="path57"
         d="m 617.51383,530.4358 c -1.19682,0.12441 -0.24081,1.60492 0.0112,2.20019 2.14406,4.96551 6.76391,8.11301 9.69897,12.52517 2.61121,3.94647 5.87685,7.40221 8.55591,11.29124 0.67584,0.99844 1.34882,2.82591 0.23047,3.70557 -1.89822,-0.64877 -2.85425,-2.74798 -4.02445,-4.23875 -1.68907,-2.8209 -4.20369,-5.23573 -7.45895,-6.07571 -2.97649,-0.85324 -6.11294,-2.02509 -9.24414,-1.51025 -1.20524,0.3793 -0.27668,1.78517 0.38672,2.23926 4.47705,3.90669 10.29889,6.27157 13.76855,11.28857 4.79146,6.28252 9.69635,12.50772 14.12891,19.04443 0.43947,0.76561 0.67149,2.91943 -0.78613,2.54834 -2.85277,-1.84138 -4.50725,-4.99911 -6.74301,-7.48276 -3.46385,-4.35503 -8.34173,-7.78679 -13.95768,-8.51152 -3.1045,-0.32967 -6.42903,-0.93566 -9.44531,0.14614 -1.60337,0.65399 -0.92833,2.6774 -0.0513,3.64893 2.23818,2.79819 5.84391,4.02529 9.19629,4.90087 6.31433,2.76115 10.99832,8.18307 17.15869,11.24512 2.24375,1.28875 2.37689,4.27216 3.72089,6.27182 1.111,2.51157 3.17717,4.59137 3.81134,7.27701 0.25035,1.33084 -1.13067,2.64856 -2.46387,2.12646 -3.78764,-0.99577 -7.19929,-3.10978 -10.81519,-4.60302 -7.38281,-3.20818 -14.86058,-6.32789 -22.6433,-8.42871 -3.53284,-0.58383 -7.40273,-1.24552 -10.81397,0.18701 -0.96199,0.5785 0.5453,1.32961 1.06152,1.52588 5.99529,2.47965 11.955,5.12068 17.33692,8.77978 6.38078,4.26126 13.64866,7.6185 18.39014,13.88721 0.49621,0.7973 1.41404,1.65788 1.28857,2.63476 -1.39079,1.32714 -3.09752,-0.37745 -4.28852,-1.0989 -4.37978,-3.32613 -10.18007,-3.01882 -15.37254,-3.59925 -1.25631,0.0634 -2.74415,-0.47301 -3.89509,-0.005 0.46134,0.84936 1.87115,0.90249 2.67869,1.40219 3.0164,1.02562 5.66934,2.75515 8.34496,4.44897 3.20174,1.9373 7.58829,3.29173 8.76932,7.28263 0.21106,1.01957 1.15561,2.79768 -0.0342,3.54492 -3.68515,-0.2079 -7.13662,-1.86795 -10.73877,-2.61279 -3.88847,-0.78238 -7.99769,-1.78568 -11.93994,-0.84619 -0.95572,0.18137 -1.54486,1.31275 -0.64844,1.98486 3.46275,2.91287 7.84059,4.46883 11.98047,6.16504 4.1137,1.61764 8.85761,2.82509 11.68213,6.48486 0.81533,1.36013 -1.18921,2.00614 -2.11036,2.4126 -5.36028,2.01501 -11.1944,1.47336 -16.80664,2.12988 -5.91156,0.60054 -11.79233,-0.33602 -17.52108,-1.76573 -2.04166,-0.28681 -4.2057,-1.09925 -6.25089,-0.58192 -0.57554,0.85644 1.06455,1.31601 1.62647,1.56689 4.43656,1.78078 9.37639,1.81858 13.71875,3.8169 0.84723,0.24734 2.05167,1.66829 0.87939,2.24853 -3.57861,1.09633 -7.44868,0.79578 -11.17516,1.10434 -6.35284,0.35326 -12.72195,0.10378 -19.07484,0.27701 -1.93182,0.448 -3.49197,2.3751 -3.74365,4.30615 0.61108,2.38159 3.50222,2.98161 5.51994,3.64758 7.42254,1.95642 15.05845,3.30339 22.73868,3.57795 3.99975,-0.0459 8.07679,0.18468 12.01823,-0.58002 5.52178,-2.2173 10.58896,-5.48725 15.33308,-9.05074 5.26705,-4.26194 9.68154,-9.50919 13.06603,-15.37545 3.15088,-5.29639 6.45488,-10.59126 8.59259,-16.39461 0.32327,-3.74954 3.83053,-6.02833 5.78809,-8.94434 3.07521,-3.92661 4.42315,-9.02423 3.81885,-13.96386 -0.59044,-6.83055 -1.4982,-13.72976 -3.74317,-20.2334 -5.46247,-12.28906 -11.09195,-24.8059 -19.98963,-35.05703 -4.68579,-5.52261 -10.83992,-9.71829 -17.49279,-12.50694 -0.65117,-0.23527 -1.33167,-0.4057 -2.02783,-0.40771 z"
         style="opacity:1;vector-effect:none;fill:#d4aa00;fill-opacity:1;stroke:none;stroke-width:0.34488189;stroke-linecap:round;stroke-linejoin:miter;stroke-miterlimit:4;stroke-dasharray:none;stroke-dashoffset:0;stroke-opacity:0" />
      <path
         transform="scale(0.26458333)"
         inkscape:connector-curvature="0"
         id="path59"
         d="m 110.55715,523.18477 c -3.65123,0.17684 -7.50286,-0.15265 -10.961421,1.22413 -6.065044,2.68672 -8.862669,9.66551 -8.839616,15.9614 0.197891,6.91982 1.745274,14.0962 5.794747,19.83281 3.60185,5.16964 9.47296,8.09262 15.36567,9.84055 8.33998,2.8474 17.23796,3.57424 25.57686,6.39236 3.14298,1.77929 6.96386,1.13428 10.38603,1.93723 10.2083,1.69701 20.35149,5.43335 30.84199,4.3152 2.43597,-0.22301 4.64753,-1.29821 6.72442,-2.50465 1.52837,-0.13624 2.35772,1.68074 3.50078,2.44173 6.05315,5.84084 14.61231,7.52275 22.54454,9.2025 9.74352,2.01764 19.34365,4.61942 28.81893,7.66053 5.54416,1.55035 11.2561,3.61915 17.09915,2.6458 0.61094,-0.17341 1.20718,0.0805 0.91404,0.81848 -0.01,1.73154 -1.03878,4.28773 0.86035,5.41211 2.04992,0.73652 4.64624,-0.034 6.07861,-1.646 1.3288,-2.60051 -0.50816,-5.37833 -0.61328,-8.01953 0.22721,-1.09079 1.1209,-2.59139 2.34082,-2.5332 1.45656,1.50605 1.03644,3.88077 1.40614,5.78526 0.52018,4.42549 0.25073,8.9977 1.4298,13.32363 1.13871,2.36035 3.36672,4.33417 5.90527,5.06054 1.99062,0.58291 4.02808,-0.53722 4.97315,-2.30713 0.96032,-1.58779 2.57629,-3.60248 4.65332,-3.16943 1.00304,0.88689 -0.82672,1.33155 -1.37842,1.71631 -0.71374,1.44281 0.39325,3.15792 1.18583,4.36575 1.66277,2.11025 3.78847,4.4242 6.59835,4.76755 1.29843,0.21314 2.36931,-0.7309 2.48926,-2.00586 0.27507,-0.85029 -0.12285,-2.22521 0.74707,-2.72754 1.06965,1.58272 0.82514,3.69719 1.15901,5.53901 0.44519,3.78664 -0.0549,8.29636 3.03825,11.148 1.54399,1.99278 4.02748,2.90346 6.49024,2.84766 1.71326,-0.0576 3.35634,0.99997 3.7251,2.74023 0.92602,3.45313 2.10556,7.5146 5.70361,9.07276 1.15412,0.30272 2.77061,0.78864 3.75098,-0.10596 0.66047,-3.31249 0.0225,-6.76147 -0.20362,-10.10058 -0.42472,-5.41391 -2.03959,-10.6396 -4.34056,-15.5392 -1.32303,-3.06677 -2.37921,-6.28593 -4.55959,-8.89221 -8.27555,-10.73321 -13.314,-23.75089 -15.58862,-37.03344 -1.20078,-8.73101 -0.74994,-17.58705 -0.38529,-26.36765 0.21611,-5.58736 1.49589,-11.02901 2.78471,-16.44729 0.0476,-1.17879 0.77643,-2.82601 -0.21387,-3.7666 -3.15509,-1.29337 -6.7177,-0.66437 -10.03418,-1.14502 -1.27843,0.065 -2.18822,-0.84195 -2.52246,-1.99756 -1.39941,-1.77865 -4.00764,-1.89378 -6.0976,-2.04358 -4.95055,-0.28283 -9.32415,2.54573 -14.15826,2.85706 -9.428,0.94083 -19.08,0.70246 -28.31787,-1.46387 -3.49648,-1.3205 -7.25743,-0.564 -10.90234,-0.73514 -14.97361,-0.15641 -29.92019,-1.32314 -44.88978,-1.74971 -6.11608,-0.19004 -12.22308,-0.51989 -18.29235,-1.27394 -12.35589,-0.89362 -24.794,-0.72174 -37.10645,-2.0625 -3.2933,-0.66041 -6.62647,-1.26365 -10.01296,-1.22946 -1.15579,-0.0352 -2.31213,-0.0464 -3.46849,-0.0415 z"
         style="opacity:1;vector-effect:none;fill:#ffb380;fill-opacity:1;stroke:none;stroke-width:0.34488189;stroke-linecap:round;stroke-linejoin:miter;stroke-miterlimit:4;stroke-dasharray:none;stroke-dashoffset:0;stroke-opacity:0" />
      <path
         transform="scale(0.26458333)"
         inkscape:connector-curvature="0"
         id="path61"
         d="m 300.09574,461.27635 c -2.16884,0.5939 -3.7523,2.43397 -5.19006,4.06586 -1.55682,1.73293 -2.40107,3.90928 -3.47095,5.93514 -0.42246,0.59863 -1.06215,1.44229 -1.82681,1.42388 -0.85,-0.63655 -0.37737,-1.95393 -0.61977,-2.86641 0.0574,-0.93682 -0.71803,-1.6236 -1.62724,-1.60998 -2.67888,-0.0997 -5.06519,1.50195 -7.13114,3.03663 -1.68938,1.24927 -2.94796,2.93966 -4.04377,4.70495 -0.55496,0.8264 -1.91975,1.87427 -2.70896,0.75683 -0.34924,-1.09206 0.65485,-2.10568 1.00334,-3.08669 0.24072,-0.81138 1.19487,-1.83818 0.5835,-2.6627 -1.74279,-0.53833 -3.64414,-0.0883 -5.43902,-0.0696 -8.81464,0.74954 -17.63054,1.74507 -26.31345,3.46464 -3.18151,0.73453 -6.20091,2.04196 -9.38223,2.77484 -8.71077,2.27758 -17.42594,4.67028 -26.31734,6.16239 -5.21548,0.98079 -10.50945,1.24484 -15.80928,1.32401 -19.41571,0.34051 -38.83732,0.27087 -58.25452,0.0965 -8.33106,-0.14621 -16.69373,-0.18607 -24.95309,-1.27063 -1.81205,-0.15242 -3.96108,-0.25077 -5.25133,1.29364 -0.93551,0.86015 -2.09469,2.07857 -1.41524,3.45059 1.00801,2.7847 2.91872,5.40716 2.5074,8.52122 -0.69536,7.75585 -2.83319,15.31024 -4.566577,22.89773 0.128016,1.01552 1.552347,0.85677 2.301547,1.01233 5.96181,0.46768 11.99386,-0.0135 17.88257,1.21165 9.33095,1.28939 18.76688,1.51648 28.15796,2.11165 25.26278,1.34912 50.5287,2.66431 75.81407,3.51828 6.81789,0.32825 13.6657,0.60564 20.37533,1.93279 4.11304,0.46806 8.27708,0.23734 12.40555,0.10487 6.13064,-0.18432 12.00023,-2.10952 18.01942,-3.03249 4.81171,-0.75479 9.6618,0.0191 14.48291,0.19369 0.95306,-0.18005 1.114,-1.45785 1.72462,-2.07022 5.20045,-8.50285 10.73114,-17.0111 13.72367,-26.59971 1.45254,-5.43653 2.94333,-10.86617 4.74688,-16.20013 1.64824,-4.78893 3.10352,-9.67866 5.28588,-14.2607 1.06754,-1.49257 1.12206,-3.80437 -0.45748,-4.97185 -1.79555,-1.50916 -4.82368,-1.55886 -6.36396,0.36184 -1.18081,1.1124 -2.19905,2.75203 -3.87148,3.12708 -1.30556,-0.36813 -1.60799,-2.02939 -2.2539,-3.05768 -0.39639,-0.68423 -0.80138,-1.74597 -1.74705,-1.72426 z"
         style="opacity:1;vector-effect:none;fill:#ffb380;fill-opacity:1;stroke:none;stroke-width:0.24386832;stroke-linecap:round;stroke-linejoin:miter;stroke-miterlimit:4;stroke-dasharray:none;stroke-dashoffset:0;stroke-opacity:0" />
      <path
         transform="scale(0.26458333)"
         inkscape:connector-curvature="0"
         id="path63"
         d="m 379.51372,439.54852 c -4.55031,1.62035 -9.40835,3.0702 -13.11876,6.26107 -4.2151,2.91777 -7.49803,7.01512 -11.16554,10.57101 -8.31725,8.24924 -15.61907,17.96558 -18.87822,29.36878 -1.39722,6.3203 -3.96129,12.26113 -6.13871,18.33116 -0.52194,2.36394 -1.22657,4.69941 -2.8327,6.57848 -1.66342,2.98645 -3.51021,7.41882 -0.60905,10.26271 4.30118,3.71062 10.31952,4.21501 15.67594,5.25434 11.91332,1.70445 23.99436,2.19556 35.76723,4.79284 9.50906,1.77414 18.88806,4.15269 28.36388,6.08659 4.56787,1.40087 9.1378,2.76302 13.85266,3.65093 12.94645,3.16862 25.61097,7.54374 38.8316,9.53823 13.13638,2.69679 26.33192,5.20995 39.49998,7.6966 3.00159,0.40096 5.79769,1.8676 8.76357,2.23249 1.20202,-1.2062 1.01366,-3.26708 2.00253,-4.67395 3.98142,-8.60546 8.96666,-16.91275 16.13434,-23.26298 6.04569,-5.77155 13.60851,-9.78023 21.38377,-12.63263 5.69563,-1.35773 11.74831,-0.62906 17.60436,-0.93731 11.51293,-0.0977 23.1804,-0.0252 34.3307,3.18362 6.15184,1.34993 11.88042,4.05836 17.89242,5.82396 1.36631,0.57069 3.35713,-0.222 2.96723,-1.94178 -1.07999,-5.16806 -3.76071,-9.86296 -5.86535,-14.67002 -1.38397,-3.38797 -4.41764,-5.77892 -5.43618,-9.35095 -0.60042,-2.15719 -1.77966,-4.04107 -3.12649,-5.78386 -3.17999,-5.19678 -7.42008,-9.69424 -11.09274,-14.553 -3.65832,-3.81191 -8.42004,-6.35193 -12.77169,-9.28182 -12.22176,-7.10659 -25.50191,-13.41726 -39.84583,-14.20524 -16.40011,-1.09028 -32.90427,-1.21958 -49.29424,0.0966 -9.0578,1.181 -17.90455,3.78928 -26.46143,6.92752 -0.91383,0.23336 -2.24586,1.32161 -0.99213,2.13643 12.45236,11.58878 26.88532,20.79605 39.5966,32.08221 1.05075,0.53834 2.69703,1.42305 1.66556,2.80357 -5.95286,-3.73714 -10.79064,-9.07327 -16.58074,-13.10196 -7.35036,-5.45698 -15.32523,-10.26037 -21.55192,-17.06057 -2.30134,-1.67769 -4.78212,-3.08335 -6.89763,-5.03344 -3.8226,-2.56859 -8.15577,-4.32296 -11.84292,-7.12139 -7.75659,-5.5599 -16.75918,-9.04144 -25.47365,-12.78794 -9.28702,-3.59891 -18.84975,-7.46921 -28.99258,-7.22982 -5.12043,-0.0726 -10.24475,-0.0563 -15.36387,-0.0505 z"
         style="opacity:1;vector-effect:none;fill:#deaa87;fill-opacity:1;stroke:none;stroke-width:0.48773664;stroke-linecap:round;stroke-linejoin:miter;stroke-miterlimit:4;stroke-dasharray:none;stroke-dashoffset:0;stroke-opacity:0" />
      <path
         transform="scale(0.26458333)"
         inkscape:connector-curvature="0"
         id="path65"
         d="m 352.06914,530.29849 c -9.14902,0.23038 -17.77931,3.76955 -26.23339,6.93503 -2.65773,0.95756 -1.92089,4.38764 -2.12539,6.58701 0.49319,15.6914 2.19555,31.3275 4.04496,46.90959 1.26849,8.7956 2.16372,17.95011 6.61114,25.83874 3.77834,7.69864 5.91827,16.09496 9.78225,23.74688 2.97715,4.65496 6.46875,9.06512 10.51802,12.83419 5.28533,3.99421 11.68496,6.2348 17.92597,8.27071 4.27693,1.42115 8.77482,1.80696 13.22905,1.96239 4.39235,1.48202 9.24717,0.82592 13.85418,0.93015 6.25402,0.0335 12.4704,-0.72338 18.5436,-2.18416 4.73992,-0.68482 9.46522,-1.44165 14.13316,-2.48592 16.8646,-2.06041 33.97395,-1.66154 50.76856,-4.38754 5.8967,-0.50373 11.9096,-1.3672 17.79248,-0.52561 0.53523,0.40367 -1.06931,0.63005 -1.31961,0.71677 -5.8871,0.90433 -11.98809,0.69041 -17.68261,2.67254 -12.82522,2.42267 -26.00216,2.06954 -38.98135,3.3022 -4.20094,0.56142 -8.75475,0.45502 -12.60281,2.40489 -0.70654,1.0599 1.36053,1.50986 2.00186,1.92383 12.27985,4.53906 24.41619,9.48254 36.83248,13.66888 18.85509,6.7805 38.05836,12.64543 57.5058,17.47543 11.03789,2.421 22.18798,4.58742 33.46781,5.42519 6.19624,-0.0628 13.17775,-0.62428 17.62105,-5.52724 7.96556,-8.08744 14.69589,-17.33469 23.1688,-24.92344 1.56362,-1.66543 3.58816,-3.09363 4.84479,-4.95182 -3.14544,-1.08449 -6.7258,-1.06655 -10.03876,-1.61781 -7.01181,-0.73462 -14.12604,-1.8272 -20.46342,-5.10264 -4.64486,-1.88325 -9.03501,-4.28558 -13.25834,-6.95972 -3.72796,-1.32226 -7.10199,-3.42121 -10.15845,-5.92961 -9.75579,-7.80523 -18.29979,-17.03943 -26.65392,-26.31487 -2.90161,-4.04064 -4.55225,-8.85088 -7.47355,-12.90329 -4.66563,-7.57965 -6.22529,-16.55994 -7.92812,-25.16377 -1.19936,-6.7636 -1.48236,-13.63129 -1.67592,-20.48884 -4.57458,-1.01392 -9.56131,-1.0014 -14.0066,-2.86083 -18.64416,-3.79881 -37.42132,-7.08104 -55.83704,-11.93158 -17.75901,-4.5708 -35.58484,-8.90514 -53.52146,-12.71894 -10.70942,-1.84869 -21.40481,-4.33706 -32.30611,-4.62893 l -0.35355,0.002 z m -8.96866,9.34154 c 3.8251,0.39357 8.1783,3.97145 7.2589,8.16004 -0.65809,2.02032 -1.21509,4.4668 -2.92096,5.83571 -4.13458,1.00786 -9.45762,-1.04213 -10.80824,-5.35095 -0.84453,-3.8537 2.24045,-8.8625 6.4703,-8.6448 z m 23.16396,3.39191 c 3.06689,0.003 4.75355,3.45392 5.19558,6.05874 0.55002,2.42396 -0.63173,5.84402 -3.63635,5.65962 -2.79577,0.1104 -6.60228,-0.68026 -7.61107,-3.66605 -0.29908,-3.1147 0.68928,-7.41487 4.39249,-7.89625 0.54658,-0.10334 1.10338,-0.15125 1.65935,-0.15606 z"
         style="opacity:1;vector-effect:none;fill:#deaa87;fill-opacity:1;stroke:none;stroke-width:0.48773664;stroke-linecap:round;stroke-linejoin:miter;stroke-miterlimit:4;stroke-dasharray:none;stroke-dashoffset:0;stroke-opacity:0" />
      <path
         transform="scale(0.26458333)"
         inkscape:connector-curvature="0"
         id="path67"
         d="m 365.32263,544.87969 c -0.69953,7.4e-4 -1.24798,0.53535 -1.61176,1.08118 -0.60459,0.91303 -1.01343,1.94334 -1.33514,2.98578 -0.199,0.73022 -0.3689,1.57886 0.0384,2.27094 0.36853,0.60762 1.11222,0.78887 1.76545,0.89364 0.64865,0.0967 1.30945,0.0671 1.96294,0.0494 0.98853,-0.0581 2.04252,-0.45357 2.59778,-1.31751 0.52075,-0.8007 0.4453,-1.84478 0.0866,-2.6936 -0.45201,-1.07796 -1.23239,-1.99797 -2.1374,-2.72584 -0.39404,-0.2974 -0.86005,-0.54938 -1.36687,-0.54394 z"
         style="opacity:1;vector-effect:none;fill:#deaa87;fill-opacity:1;stroke:none;stroke-width:0.04311024;stroke-linecap:round;stroke-linejoin:miter;stroke-miterlimit:4;stroke-dasharray:none;stroke-dashoffset:0;stroke-opacity:0" />
      <path
         transform="scale(0.26458333)"
         inkscape:connector-curvature="0"
         id="path69"
         d="m 342.64959,542.5368 c -0.92178,-0.0285 -1.82549,0.35782 -2.48367,0.99459 -1.45419,1.37876 -1.85049,3.79844 -0.78568,5.52134 0.31718,0.51335 0.77091,0.94171 1.28021,1.26154 0.91712,0.50391 1.94725,0.80034 2.9867,0.90435 1.02364,0.0827 2.1256,-0.14824 2.89648,-0.86401 0.78964,-0.71885 1.27203,-1.75771 1.36884,-2.81622 0.0746,-0.93317 -0.22024,-1.87306 -0.77387,-2.62306 -0.89066,-1.21658 -2.29331,-1.99159 -3.74804,-2.31353 -0.24358,-0.0508 -0.49247,-0.0684 -0.74097,-0.065 z"
         style="opacity:1;vector-effect:none;fill:#deaa87;fill-opacity:1;stroke:none;stroke-width:0.04311024;stroke-linecap:round;stroke-linejoin:miter;stroke-miterlimit:4;stroke-dasharray:none;stroke-dashoffset:0;stroke-opacity:0" />
      <path
         inkscape:connector-curvature="0"
         id="path34"
         d="m 15.43943,135.22085 c 0.2029,-0.82125 0.49811,-1.3616 0.80216,-1.46825 0.36072,-0.12654 0.49331,-0.47577 0.52991,-1.39573 0.0279,-0.70252 0.2337,-1.43205 0.48136,-1.70675 0.4267,-0.47328 0.92519,-1.68722 1.67883,-4.08838 0.38715,-1.23346 2.11777,-3.13827 2.85129,-3.13827 0.193,0 0.98111,0.71883 1.75135,1.59741 1.55154,1.76976 2.61027,2.46375 3.20135,2.09844 0.20846,-0.12884 0.61814,-0.18184 0.91039,-0.11778 0.29225,0.0641 1.06715,0.1739 1.72199,0.24409 0.65484,0.0702 1.78594,0.23752 2.51354,0.37184 1.26198,0.23296 15.65349,0.18621 20.10833,-0.0653 1.16417,-0.0657 2.83105,-0.312 3.70417,-0.54727 0.87313,-0.23526 2.36141,-0.59376 3.30729,-0.79666 2.80453,-0.60157 4.82043,-1.12947 6.06289,-1.58767 0.64246,-0.23693 2.36886,-0.49342 3.83646,-0.56998 1.4676,-0.0766 2.93509,-0.26847 3.2611,-0.42648 0.47776,-0.23155 0.69903,-0.19109 1.14063,0.20855 0.36124,0.32692 0.60999,0.39886 0.73018,0.21117 0.10026,-0.15656 0.69065,-0.5424 1.31198,-0.85741 0.93408,-0.47357 1.15489,-0.50711 1.27516,-0.1937 0.1047,0.27286 0.44627,0.0527 1.2191,-0.78571 1.16013,-1.25858 1.62718,-1.40318 2.3677,-0.73302 0.44119,0.39928 0.52664,0.39928 1.136,0 0.88232,-0.57811 1.78605,-0.54427 2.60183,0.0974 0.81628,0.64209 1.14958,0.63957 2.17676,-0.0164 0.43657,-0.27881 0.97235,-0.58211 1.19063,-0.674 0.21828,-0.0919 0.87803,-0.38946 1.46611,-0.66124 0.58808,-0.27178 1.89777,-0.69606 2.91042,-0.94284 1.01264,-0.24679 2.23175,-0.66492 2.70912,-0.92918 0.47737,-0.26427 1.01315,-0.4838 1.19063,-0.48785 0.17747,-0.004 0.78535,-0.35749 1.35084,-0.78543 1.99747,-1.5116 6.39468,-2.20195 9.42288,-1.47938 4.26677,1.01812 9.74668,3.40452 13.20326,5.74978 l 1.99645,1.35458 2.73189,-0.83617 c 1.50254,-0.4599 2.83494,-0.77249 2.96088,-0.69465 0.12594,0.0778 0.26892,0.0221 0.31773,-0.12375 0.25313,-0.75663 16.26053,-0.99487 18.62914,-0.27725 0.49856,0.15105 1.35297,0.41164 1.89867,0.5791 0.5457,0.16745 1.41478,0.57059 1.93129,0.89585 0.51651,0.32526 1.58807,0.86893 2.38125,1.20814 3.40267,1.45521 7.64658,5.80812 9.77586,10.02696 0.3305,0.65485 0.68874,1.25016 0.79608,1.32292 0.25931,0.17577 1.23571,2.3452 1.46288,3.25032 0.0992,0.39514 0.28647,0.71843 0.41622,0.71843 0.12974,0 0.2359,0.35719 0.2359,0.79375 0,0.46464 0.13911,0.79375 0.3355,0.79375 0.60503,0 3.3589,2.48031 4.55336,4.10104 0.64348,0.87313 1.27162,1.70656 1.39587,1.85209 0.12425,0.14552 0.40599,0.62177 0.62608,1.05833 0.2201,0.43656 0.53749,1.03187 0.70531,1.32292 1.26549,2.19458 2.26372,4.94862 2.69569,7.43715 0.26452,1.52393 0.42186,3.03384 0.34964,3.35536 -0.19275,0.85813 -1.08022,2.76755 -1.36936,2.94625 -0.13738,0.0849 -0.91414,1.47166 -1.72613,3.08169 -2.50563,4.96817 -4.10867,7.02194 -6.97644,8.93802 -0.91269,0.6098 -2.25215,1.24555 -2.97657,1.41276 -0.75005,0.17314 -1.31712,0.45241 -1.31712,0.64867 0,0.18955 -0.34858,0.5249 -0.77461,0.74521 -0.97374,0.50354 -4.86161,4.37248 -5.76371,5.73565 -2.78212,4.20406 -4.25277,4.41331 -14.86304,2.11477 -2.36514,-0.51237 -4.83519,-1.17747 -5.98301,-1.61104 -0.29105,-0.10994 -1.24355,-0.38107 -2.11667,-0.60252 -0.87313,-0.22144 -1.94469,-0.5289 -2.38125,-0.68324 -0.43656,-0.15433 -2.16297,-0.72274 -3.83646,-1.26313 -4.98881,-1.61096 -7.47889,-2.48023 -8.59896,-3.00184 -3.14124,-1.46286 -5.69068,-2.01274 -7.57972,-1.63483 -2.69188,0.53853 -7.65691,0.29349 -11.0734,-0.54649 -2.64229,-0.64964 -5.06063,-1.95526 -6.17815,-3.33547 -0.35726,-0.44123 -0.64336,-0.55559 -1.05834,-0.42304 -0.50145,0.16017 -2.39108,0.15806 -4.04236,-0.005 -0.30978,-0.0305 -0.87532,-0.25994 -1.25677,-0.50988 -0.69205,-0.45345 -0.69355,-0.45281 -0.69355,0.29485 0,0.89644 -0.44717,1.52712 -1.25225,1.76614 -0.4706,0.13972 -0.8067,-0.0567 -1.65212,-0.96547 -0.58373,-0.62748 -1.12949,-1.34895 -1.21278,-1.60328 -0.0833,-0.25432 -0.47094,-0.53663 -0.86142,-0.62734 -1.07401,-0.24951 -2.69434,-2.05464 -2.69434,-3.00163 0,-0.69106 -0.12566,-0.81685 -1.0701,-1.07116 -0.7116,-0.19161 -1.16875,-0.50467 -1.36457,-0.93445 -0.25789,-0.56601 -0.44963,-0.63955 -1.54332,-0.59197 -1.01413,0.0441 -1.43395,-0.0868 -2.23367,-0.69681 -0.83658,-0.6381 -0.96223,-0.8641 -0.83474,-1.50151 0.14782,-0.7391 0.13191,-0.74999 -1.06038,-0.72605 -0.95739,0.0192 -1.32955,-0.10729 -1.78021,-0.60515 -0.78409,-0.86619 -1.44683,-1.17974 -2.64373,-1.25078 -0.56173,-0.0333 -1.18524,-0.22452 -1.38556,-0.42484 -0.20033,-0.20033 -1.10994,-0.53949 -2.02137,-0.75369 -0.91143,-0.2142 -3.30065,-0.81959 -5.30937,-1.34531 -2.00873,-0.52572 -4.01318,-0.95586 -4.45435,-0.95586 -0.581,0 -1.02356,-0.25011 -1.60538,-0.90729 -0.64141,-0.72449 -0.91674,-0.86482 -1.36649,-0.69646 -0.98615,0.36916 -4.41237,0.0394 -8.36843,-0.80552 -7.45304,-1.59173 -12.83137,-3.08451 -14.25656,-3.95698 -0.76586,-0.46884 -1.00461,-0.50259 -1.65364,-0.23376 -0.4172,0.17281 -0.75855,0.40911 -0.75855,0.52511 0,0.35648 -1.89763,1.40624 -2.59743,1.43687 -1.28872,0.0564 -2.3063,-1.89704 -1.90804,-3.66288 0.22473,-0.9964 -0.0476,-1.48868 -0.8235,-1.48868 -0.25335,0 -0.53422,0.11906 -0.62416,0.26458 -0.0899,0.14552 -0.51093,0.26459 -0.93555,0.26459 -0.54701,0 -0.90878,-0.20855 -1.24116,-0.71548 -0.39878,-0.6082 -0.4762,-1.41153 -0.51636,-5.35781 -0.0296,-2.91001 0.0726,-5.12725 0.27382,-5.94183 z m 0.3309,8.68618 c 0.0883,0.23019 0.26692,0.41852 0.39687,0.41852 0.37857,0 0.27252,-0.69888 -0.1606,-1.05833 -0.42074,-0.34919 -0.51639,-0.0902 -0.23627,0.63981 z m 0.8415,-7.09889 c 0.85403,0.4234 1.90831,1.45928 1.90831,1.87499 0,0.54102 -0.2327,0.42901 -1.21924,-0.58685 -1.03626,-1.06707 -1.42659,-0.99937 -1.42659,0.24743 0,0.70973 0.17848,0.9816 0.98858,1.50583 0.99274,0.64242 1.47287,1.56559 0.81426,1.56559 -0.19395,0 -0.50135,-0.23812 -0.6831,-0.52916 -0.43045,-0.68925 -1.11974,-0.68276 -1.11974,0.0105 0,0.99948 1.11986,2.75691 2.81134,4.41191 1.53976,1.50657 1.65865,1.70198 1.41899,2.33233 -0.14387,0.3784 -0.26158,1.15905 -0.26158,1.73478 0,0.86547 0.11694,1.10006 0.67515,1.3544 0.5788,0.26372 0.87665,0.20219 2.08728,-0.43119 1.94774,-1.01902 2.24928,-1.65303 1.6233,-3.41304 -0.57305,-1.61117 -0.74852,-4.05317 -0.43386,-6.03805 0.22129,-1.39589 0.2098,-1.43299 -0.77555,-2.5032 -1.1964,-1.29942 -1.47811,-1.79342 -1.7192,-3.01473 -0.41889,-2.12203 -0.44014,-2.69346 -0.14579,-3.92047 0.47072,-1.96216 0.43161,-2.98443 -0.12989,-3.39501 -1.07726,-0.78771 -2.27007,-0.20497 -2.64353,1.29148 -0.13911,0.5574 -0.025,0.90754 0.49838,1.52957 0.95395,1.13371 1.62242,3.70069 0.96371,3.70069 -0.14552,0 -0.26458,-0.3389 -0.26458,-0.7531 0,-1.20408 -0.73251,-2.4219 -1.45676,-2.4219 -0.88178,0 -1.04786,0.8117 -0.44364,2.1683 0.27901,0.62644 0.5821,1.45535 0.67355,1.84201 0.0914,0.38667 0.23903,0.89268 0.32798,1.12448 0.089,0.2318 0.0448,0.42146 -0.0981,0.42146 -0.1429,0 -0.33151,-0.35851 -0.41915,-0.79668 -0.17323,-0.86618 -1.16035,-1.50476 -1.89203,-1.22398 -0.63766,0.24469 -0.40609,1.54095 0.34149,1.91158 z m 0.15362,9.48288 c 0.36344,0.22264 0.54463,0.17325 0.84415,-0.2301 0.55253,-0.74408 0.47527,-0.94162 -0.36828,-0.94162 -1.19459,0 -1.43247,0.58572 -0.47587,1.17172 z m 5.00967,-18.32897 c 0.48985,0.66854 0.49583,0.8032 0.12494,2.81573 -0.60611,3.28887 0.27027,6.63647 2.01444,7.69477 0.64157,0.38929 0.76366,0.38982 1.424,0.006 0.39725,-0.23078 0.6874,-0.57279 0.64477,-0.76003 -0.0426,-0.18723 0.17951,-1.36691 0.49362,-2.62149 0.65608,-2.62044 0.68325,-4.54868 0.0771,-5.47374 -0.232,-0.35407 -0.34441,-0.64377 -0.24979,-0.64377 0.0946,0 0.0446,-0.23813 -0.11117,-0.52917 -0.15576,-0.29104 -0.44754,-0.52917 -0.64839,-0.52917 -0.27233,0 -2.8193,-2.67096 -3.51598,-3.68715 -0.20151,-0.29393 -2.06956,1.08142 -2.19629,1.61701 -0.11246,0.47529 0.0246,0.68996 0.64265,1.00642 0.43208,0.22125 1.01711,0.71822 1.30007,1.10439 z m 2.8678,18.2693 c 0.6317,2.03067 2.00052,3.44114 4.06368,4.18733 1.71128,0.61892 2.32135,0.77631 5.53386,1.42761 1.15186,0.23353 2.22891,0.53633 2.39345,0.67288 0.16454,0.13656 0.5318,0.24489 0.81614,0.24073 0.77971,-0.0114 2.46219,0.26641 4.08884,0.67515 3.43434,0.86297 5.95976,0.94798 7.04465,0.23713 0.65561,-0.42957 0.69468,-0.41956 1.42911,0.36628 0.92384,0.98851 2.51982,1.7398 4.62312,2.17627 3.63025,0.75334 5.63778,1.25408 7.67291,1.91385 3.13334,1.01581 4.50582,1.30772 5.38249,1.1448 0.86725,-0.16117 0.88119,-0.14901 0.71211,0.62079 -0.19915,0.90672 0.1292,1.22239 1.03501,0.99504 0.79318,-0.19908 0.98872,-0.73506 0.63663,-1.74505 -0.21098,-0.60521 -0.19827,-0.9067 0.0509,-1.2069 0.5485,-0.6609 0.87648,-0.29187 0.96812,1.08928 0.0477,0.71847 0.12306,1.88949 0.16756,2.60227 0.0646,1.03442 0.23024,1.42441 0.82094,1.93252 0.92167,0.79278 1.75696,0.69759 2.21063,-0.25192 0.33153,-0.69387 1.3771,-1.04542 1.3771,-0.46302 0,0.14552 -0.11906,0.26459 -0.26458,0.26459 -0.51973,0 -0.25154,0.8475 0.50881,1.60785 0.9959,0.99589 1.87244,1.03797 1.87244,0.0899 0,-0.41092 0.12559,-0.64164 0.31492,-0.57853 0.19409,0.0647 0.3374,0.79429 0.37347,1.90137 0.0508,1.55771 0.15547,1.89756 0.78807,2.55785 0.52672,0.54978 0.94585,0.74448 1.50766,0.70037 0.83069,-0.0652 1.11316,0.23669 1.37248,1.46699 0.19643,0.93197 1.03458,1.77921 1.76011,1.77921 0.54276,0 0.55442,-0.0731 0.36919,-2.31511 -0.14139,-1.71146 -0.391,-2.74339 -0.95733,-3.95771 -0.42134,-0.90344 -0.76607,-1.73952 -0.76607,-1.85795 0,-0.11843 -0.33766,-0.62941 -0.75035,-1.13551 -1.97414,-2.42097 -3.6541,-6.5762 -4.11602,-10.18061 -0.37012,-2.88812 -0.13262,-7.87425 0.4726,-9.92187 0.23656,-0.80037 0.37318,-1.60404 0.30358,-1.78594 -0.0815,-0.21304 -0.6834,-0.33073 -1.69148,-0.33073 -1.32651,0 -1.58541,-0.0782 -1.69923,-0.51349 -0.18902,-0.72282 -2.34533,-0.84799 -3.68801,-0.2141 -1.46993,0.69397 -7.20168,0.63833 -9.4127,-0.0914 -0.4793,-0.15819 -1.04521,-0.22094 -1.25755,-0.13946 -0.21235,0.0815 -2.61846,0.0298 -5.34691,-0.11495 -2.72844,-0.14471 -6.47133,-0.30791 -8.31752,-0.36267 -1.8462,-0.0548 -3.4569,-0.16147 -3.57934,-0.23715 -0.12244,-0.0757 -2.58939,-0.2122 -5.48211,-0.30339 -2.89271,-0.0912 -5.47114,-0.27909 -5.72983,-0.41753 -0.25869,-0.13845 -1.59165,-0.25172 -2.96215,-0.25172 -2.15015,0 -2.61507,0.0823 -3.39083,0.60058 -1.84582,1.23309 -2.29701,3.78779 -1.25854,7.12605 z m 3.33608,-8.4787 c 0.83674,0.0229 1.69995,0.026 1.91823,0.007 0.21828,-0.0192 0.99218,0.0808 1.71979,0.22236 0.7276,0.1415 3.64463,0.37454 6.48229,0.51785 2.83766,0.14331 7.36203,0.37724 10.05417,0.51984 2.69213,0.14261 7.09744,0.32915 9.78958,0.41454 2.69213,0.0854 5.31151,0.26278 5.82083,0.39417 1.70278,0.43927 4.79362,0.33007 7.14375,-0.2524 1.62967,-0.40391 2.72253,-0.51912 3.96875,-0.41837 l 1.71979,0.13904 0.78413,-1.25576 c 2.07841,-3.32854 3.08876,-5.47968 3.4664,-7.38035 0.22124,-1.11347 2.08362,-6.64906 2.34575,-6.97228 0.4739,-0.58436 0.20673,-1.29875 -0.55743,-1.49054 -0.51826,-0.13007 -0.80445,-0.0107 -1.26819,0.52899 -0.7491,0.87178 -1.14179,0.88131 -1.46336,0.0355 -0.13832,-0.3638 -0.34374,-0.65718 -0.45648,-0.65194 -0.51633,0.024 -1.78128,1.36137 -2.03756,2.15428 -0.32424,1.00312 -1.11437,1.22393 -1.01481,0.2836 0.0481,-0.45431 -0.0734,-0.59532 -0.5128,-0.59532 -0.75298,0 -2.22577,1.01962 -2.57273,1.78109 -0.15039,0.33009 -0.45459,0.60016 -0.67599,0.60016 -0.48562,0 -0.51357,-0.35858 -0.0818,-1.04989 0.17639,-0.28245 0.26569,-0.55711 0.19844,-0.61036 -0.35779,-0.28331 -8.18569,0.67671 -9.11811,1.11825 -0.50304,0.23821 -2.01272,0.64745 -5.55625,1.50617 -1.78735,0.43313 -2.29952,0.53305 -4.36562,0.85168 -2.11798,0.32662 -21.73181,0.29803 -23.96803,-0.0349 -1.70901,-0.25447 -1.92019,-0.23437 -2.38139,0.2267 -0.49632,0.49619 -0.49649,0.5253 -0.009,1.51131 0.44687,0.90336 0.46605,1.19867 0.18905,2.91041 -0.16956,1.04778 -0.47195,2.50036 -0.67198,3.22797 -0.20002,0.7276 -0.37433,1.41221 -0.38734,1.52135 -0.013,0.10914 0.66095,0.21719 1.4977,0.24012 z m 49.48174,1.98455 c 0.10724,0.16855 0.65071,0.39194 1.20769,0.49643 1.2186,0.22861 1.42497,0.64096 0.89033,1.77896 -1.25949,2.68088 -1.61938,6.40169 -1.04267,10.77963 0.30141,2.28802 1.80252,6.94017 2.63953,8.18022 0.72682,1.07681 1.08028,1.67239 1.58523,2.67109 0.25845,0.51118 0.73781,1.30346 1.06523,1.76063 0.32742,0.45717 0.59531,1.01417 0.59531,1.23777 0,0.22361 0.11906,0.48015 0.26459,0.57009 0.14552,0.0899 0.26458,0.81741 0.26458,1.61661 0,1.4282 0.017,1.46028 0.99219,1.87244 1.08745,0.45961 4.26588,0.78303 4.98466,0.50721 0.41822,-0.16049 0.41351,-0.21809 -0.0623,-0.76202 -0.7177,-0.82047 -1.03819,-1.54209 -1.96519,-4.42487 -0.44454,-1.38244 -1.02102,-2.75166 -1.28106,-3.0427 -0.26003,-0.29105 -0.55835,-0.7673 -0.66291,-1.05834 -0.43926,-1.22262 -1.21165,-5.58414 -1.21169,-6.84215 -2e-5,-0.74797 -0.23623,-3.20541 -0.5249,-5.46098 -0.28868,-2.25558 -0.52679,-4.87905 -0.52913,-5.82994 -0.004,-1.6182 0.0435,-1.75713 0.74243,-2.16997 0.41069,-0.2426 1.33343,-0.63711 2.05053,-0.87669 1.4047,-0.4693 2.08118,-0.91299 1.39202,-0.91299 -0.66462,0 -3.23454,-1.13291 -3.56986,-1.57372 -0.1972,-0.25925 -0.22081,-0.56352 -0.0661,-0.85252 0.13228,-0.24716 0.24051,-0.71357 0.24051,-1.03647 0,-0.32289 0.34139,-1.31299 0.75866,-2.20021 0.41726,-0.88721 1.02487,-2.38702 1.35023,-3.33291 0.32536,-0.94589 0.68908,-1.95792 0.80825,-2.24896 0.11918,-0.29104 0.29475,-0.88635 0.39016,-1.32291 0.0954,-0.43657 0.44349,-1.15094 0.77351,-1.5875 0.33002,-0.43657 0.80154,-1.21047 1.04783,-1.7198 0.24628,-0.50932 1.03856,-1.5704 1.76062,-2.35795 0.72205,-0.78756 1.31282,-1.5317 1.31282,-1.65365 0,-0.64657 -3.9341,0.50801 -5.61653,1.64834 -0.62169,0.42137 -1.21367,0.7683 -1.31552,0.77095 -0.10185,0.003 -0.7298,0.37237 -1.39544,0.82162 -1.63927,1.10632 -1.91345,1.69185 -3.82993,8.17903 -0.32243,1.0914 -0.78478,2.45852 -1.02743,3.03804 -0.49926,1.19233 -2.61909,4.45652 -2.98135,4.59078 -0.28623,0.10608 -0.29694,0.33556 -0.0349,0.74741 z m 3.77636,-2.22467 c 0.32175,-0.8088 0.88653,-0.7791 0.68199,0.0359 -0.0989,0.39412 -0.0147,0.75048 0.22431,0.94882 0.50159,0.41628 1.0164,0.0825 0.8506,-0.55153 -0.0816,-0.31216 0.007,-0.49931 0.2365,-0.49931 0.20188,0 0.44681,0.31775 0.54428,0.7061 0.13719,0.54659 0.0421,0.81555 -0.42115,1.19063 -0.3291,0.26649 -0.80872,0.48452 -1.06582,0.48452 -0.86887,0 -1.45655,-1.29489 -1.05071,-2.3151 z m 5.02919,13.82448 c 0.29341,3.05594 0.64868,6.12181 0.78949,6.81303 0.14082,0.69122 0.35595,1.76279 0.47807,2.38125 0.12212,0.61846 0.47394,1.54194 0.78182,2.05216 0.30788,0.51022 0.98402,2.09964 1.50253,3.53204 1.13107,3.12463 1.30299,3.4671 2.36044,4.70186 0.45194,0.52773 1.0003,1.19207 1.21859,1.47631 1.02672,1.33699 6.70031,3.45753 8.20085,3.06513 0.29327,-0.0767 0.69396,-0.006 0.89043,0.15703 0.43324,0.35956 6.059,0.19242 7.1216,-0.21158 0.38836,-0.14765 1.35909,-0.322 2.15718,-0.38742 0.79809,-0.0654 1.60463,-0.21388 1.79231,-0.32987 0.32743,-0.20236 3.96706,-0.5049 9.12767,-0.75872 1.33915,-0.0659 3.24415,-0.26336 4.23333,-0.43889 1.86123,-0.33026 5.33156,-0.50152 5.72935,-0.28273 0.48889,0.26889 -0.5655,0.5798 -1.97936,0.58365 -0.81844,0.002 -1.97588,0.17616 -2.57208,0.38651 -1.08159,0.3816 -3.22401,0.60184 -7.97837,0.82015 -3.87908,0.17812 -6.54657,0.57095 -6.17693,0.90964 0.12309,0.11279 0.70006,0.35356 1.28214,0.53503 0.58208,0.18147 1.65365,0.58868 2.38125,0.90491 0.7276,0.31622 2.03729,0.82483 2.91042,1.13023 0.87312,0.30541 2.18281,0.76354 2.91041,1.01808 0.72761,0.25453 1.56104,0.55978 1.85209,0.67832 0.79712,0.32469 5.868,1.94606 7.67291,2.45336 0.87313,0.24541 2.12328,0.61489 2.77813,0.82108 1.52383,0.47981 3.06058,0.86546 4.23333,1.06237 0.50932,0.0855 1.34276,0.26429 1.85208,0.39728 1.53756,0.40146 6.43227,1.03621 7.20919,0.93489 2.98095,-0.38876 3.03384,-0.42369 6.06667,-4.00645 0.62916,-0.74325 1.33494,-1.57668 1.5684,-1.85208 0.23345,-0.2754 1.13713,-1.16257 2.00818,-1.97148 l 1.58372,-1.47076 -2.93422,-0.339 c -1.61383,-0.18644 -3.29142,-0.49798 -3.72798,-0.6923 -0.43656,-0.19433 -1.50812,-0.6717 -2.38125,-1.06084 -0.87312,-0.38914 -1.64703,-0.78498 -1.71979,-0.87965 -0.20627,-0.26837 -1.28506,-0.83357 -1.59103,-0.83357 -0.55252,0 -4.40095,-3.16568 -5.8173,-4.78525 -0.80037,-0.91521 -1.89332,-2.06977 -2.42878,-2.5657 -0.53547,-0.49593 -1.16113,-1.3368 -1.39035,-1.8686 -0.41975,-0.9738 -0.65393,-1.38639 -1.58191,-2.78712 -1.05616,-1.59418 -2.24233,-6.88598 -2.30184,-10.26898 l -0.0265,-1.50584 -1.49313,-0.18045 c -0.82123,-0.0993 -1.6122,-0.27368 -1.75772,-0.38763 -0.14552,-0.11394 -0.8599,-0.29309 -1.5875,-0.3981 -0.7276,-0.105 -2.09682,-0.35777 -3.04271,-0.56169 -0.94588,-0.20392 -2.3151,-0.47985 -3.04271,-0.61318 -2.21654,-0.40615 -5.90012,-1.27065 -9.65729,-2.26646 -1.96453,-0.52068 -4.10765,-1.05299 -4.7625,-1.18291 -0.65484,-0.12991 -2.44078,-0.54226 -3.96875,-0.91633 -1.52797,-0.37406 -3.43297,-0.78579 -4.23333,-0.91495 -0.80037,-0.12917 -2.52677,-0.42635 -3.83646,-0.6604 -3.42263,-0.61166 -5.27018,-0.49086 -8.22339,0.53769 -1.37161,0.47771 -2.61253,0.94192 -2.75762,1.03159 -0.39458,0.24386 -0.315,2.81694 0.2782,8.99534 z m 3.25486,-8.13433 c 0.72438,-0.78163 1.71881,-0.72648 2.72834,0.15129 0.7222,0.62795 0.7862,1.46745 0.19849,2.60395 -0.39055,0.75524 -0.49728,0.80198 -1.51865,0.66498 -1.92914,-0.25875 -2.67015,-2.05854 -1.40818,-3.42022 z m 0.83107,2.44491 c 0.81817,0.31107 1.38715,0.1102 1.60158,-0.56543 0.18794,-0.59214 -0.21962,-1.19012 -0.97441,-1.42968 -1.23606,-0.39231 -1.84143,1.53345 -0.62717,1.99511 z m 4.93805,-0.96033 c 0.20788,-0.77377 0.76442,-1.14114 1.74498,-1.15185 0.6418,-0.007 1.38906,1.04114 1.38906,1.94837 0,1.24435 -0.53477,1.61865 -1.89406,1.32571 -1.24576,-0.26848 -1.58297,-0.84561 -1.23998,-2.12223 z m 1.43267,1.35808 c 0.93028,0 1.17508,-0.72112 0.49858,-1.46865 -0.51257,-0.56638 -0.84453,-0.46188 -1.17929,0.37125 -0.33691,0.83846 -0.17629,1.0974 0.68071,1.0974 z m -9.78578,-7.94727 c 0.80947,0.53039 3.44236,1.12319 5.79861,1.30557 2.83221,0.21922 4.35986,0.40367 5.95312,0.71878 0.80037,0.15829 2.03273,0.38956 2.73858,0.51394 0.70586,0.12437 1.65836,0.34031 2.11667,0.47987 0.45831,0.13956 1.66673,0.39879 2.68538,0.57606 1.01864,0.17727 2.0902,0.44849 2.38125,0.60271 0.29104,0.15423 1.06494,0.36124 1.71979,0.46004 0.65484,0.0988 2.20265,0.48251 3.43958,0.8527 3.06534,0.9174 5.23765,1.46752 6.49052,1.64369 0.57756,0.0812 1.82401,0.3151 2.7699,0.51976 2.98362,0.64557 5.62212,1.15773 7.67291,1.48939 1.09141,0.1765 2.37133,0.47522 2.84428,0.66382 0.76699,0.30585 0.86043,0.29434 0.86487,-0.10662 0.008,-0.70147 1.86671,-4.08386 3.02908,-5.51146 2.17381,-2.66984 6.21218,-5.0817 8.62616,-5.15186 4.18086,-0.12151 8.48249,-0.0204 9.77103,0.22963 2.63391,0.51111 4.6111,1.05328 5.90891,1.62029 1.8189,0.79468 2.34958,0.75258 2.12944,-0.16893 -0.0956,-0.40019 -0.25699,-0.84667 -0.35866,-0.99219 -0.10166,-0.14552 -0.45245,-0.93981 -0.77953,-1.76508 -0.32708,-0.82527 -0.8233,-1.70738 -1.10271,-1.96025 -0.27941,-0.25286 -0.63116,-0.91709 -0.78168,-1.47606 -0.15052,-0.55898 -0.38814,-1.01632 -0.52805,-1.01632 -0.13991,0 -0.25439,-0.16867 -0.25439,-0.37483 0,-0.20615 -0.0893,-0.41451 -0.19843,-0.46302 -0.10914,-0.0485 -0.84686,-0.95139 -1.63937,-2.00642 -0.79252,-1.05503 -1.5101,-1.91823 -1.59463,-1.91823 -0.0845,0 -0.79263,-0.48009 -1.57356,-1.06688 -0.78094,-0.58678 -2.76097,-1.70434 -4.40008,-2.48346 -4.06107,-1.93038 -6.14282,-2.27028 -13.91003,-2.27119 -6.28408,-7.4e-4 -7.43172,0.14397 -11.83772,1.49256 -1.80403,0.55218 -2.14644,0.73826 -1.85209,1.00653 0.91596,0.83477 4.27824,3.54687 5.43099,4.38077 1.76407,1.27613 4.09459,3.14451 4.66388,3.73903 0.26033,0.27187 0.58775,0.49431 0.7276,0.49431 0.13985,0 0.25428,0.17859 0.25428,0.39687 0,0.66118 -0.3734,0.46509 -2.22223,-1.16702 -0.97435,-0.86015 -2.44778,-2.02101 -3.27428,-2.57969 -2.50342,-1.69222 -3.86393,-2.76202 -4.52989,-3.56193 -0.34852,-0.41863 -0.77425,-0.76115 -0.94606,-0.76115 -0.17181,0 -0.59202,-0.29766 -0.93379,-0.66146 -0.34178,-0.3638 -0.73906,-0.66146 -0.88286,-0.66146 -0.28853,0 -2.86906,-1.58467 -3.09658,-1.90158 -0.21023,-0.2928 -6.33751,-3.17432 -7.26535,-3.41672 -0.43657,-0.11405 -1.50813,-0.47031 -2.38125,-0.79169 -1.18175,-0.43497 -2.37324,-0.6148 -4.66171,-0.70359 -2.70371,-0.1049 -3.2692,-0.0482 -4.69209,0.47063 -0.88984,0.32445 -1.75344,0.75325 -1.91913,0.95289 -0.16568,0.19964 -0.39898,0.36298 -0.51845,0.36298 -0.11946,0 -0.80566,0.62508 -1.52488,1.38906 -0.71922,0.76399 -1.86072,1.97744 -2.53668,2.69656 -2.0629,2.19464 -3.5401,5.0424 -4.02357,7.75668 -0.0711,0.39897 -0.42019,1.34311 -0.77583,2.09809 -0.35564,0.75497 -0.64662,1.60967 -0.64662,1.89933 0,0.28966 -0.18955,0.71619 -0.42121,0.94786 -0.50159,0.50158 -0.85831,1.6867 -0.6972,2.31624 0.0634,0.24789 0.39813,0.63599 0.74376,0.86245 z m 49.38416,19.46759 c 1.2987,3.75885 2.91267,6.31556 5.93101,9.39536 2.89684,2.95582 5.72783,5.00107 7.43906,5.37435 1.00005,0.21815 1.17257,0.18331 1.51533,-0.30605 0.35609,-0.50838 0.63191,-0.55068 3.47412,-0.53275 l 3.08732,0.0195 -1.22922,-0.53209 c -1.28543,-0.55643 -1.57345,-1.17249 -0.83476,-1.78554 0.4529,-0.37588 1.07675,-0.28916 3.83888,0.53366 1.80617,0.53805 2.12693,0.56133 3.57187,0.25923 0.87313,-0.18255 1.94469,-0.36739 2.38125,-0.41075 0.43656,-0.0434 0.8381,-0.088 0.89229,-0.0992 0.28427,-0.0587 -0.62452,-0.8158 -0.99083,-0.8254 -0.23684,-0.006 -1.08547,-0.36175 -1.88583,-0.79009 -0.80037,-0.42833 -1.78263,-0.91114 -2.18282,-1.07292 -0.82689,-0.33428 -0.92184,-0.90564 -0.29841,-1.79571 0.35341,-0.50457 0.59864,-0.58898 1.38906,-0.47813 1.05557,0.14804 3.3413,0.63255 4.06873,0.86246 0.83671,0.26444 0.48333,-0.38402 -0.45085,-0.82732 -0.50263,-0.23852 -1.05299,-0.60129 -1.22302,-0.80617 -0.17004,-0.20487 -0.49511,-0.3725 -0.72239,-0.3725 -0.61526,0 -2.7185,-1.07403 -2.5709,-1.31284 0.0702,-0.1136 -0.33846,-0.19432 -0.90813,-0.17939 -1.26573,0.0332 -1.59626,-0.23769 -0.91842,-0.75268 0.51767,-0.3933 2.15794,-0.32902 3.01447,0.11814 0.59999,0.31323 4.29691,0.57716 4.12208,0.29428 -0.081,-0.13111 -0.68948,-0.50084 -1.3521,-0.82161 -0.66262,-0.32076 -1.79484,-0.98911 -2.51605,-1.48522 -1.35707,-0.9335 -4.52704,-2.21068 -5.48692,-2.21068 -0.71322,0 -1.00358,-0.48926 -0.54408,-0.91677 0.6581,-0.61227 2.65474,-0.92671 4.33613,-0.68286 1.76066,0.25535 2.5082,0.49519 2.5082,0.80474 0,0.11376 0.38695,0.2807 0.8599,0.37098 0.47294,0.0903 1.51474,0.47354 2.3151,0.8517 1.80985,0.85511 2.91042,1.19313 2.91042,0.89388 0,-0.97963 -1.80519,-3.43835 -2.52444,-3.43835 -0.16718,0 -0.51947,-0.23812 -0.78285,-0.52916 -0.26339,-0.29104 -0.62446,-0.52917 -0.80236,-0.52917 -0.17791,0 -0.4717,-0.17859 -0.65285,-0.39687 -0.18116,-0.21829 -0.49469,-0.39688 -0.69674,-0.39688 -0.71332,0 -2.78566,-1.14229 -3.18893,-1.75775 -0.36988,-0.56451 -0.36778,-0.68568 0.0221,-1.28076 0.55851,-0.8524 1.52793,-1.0796 2.87914,-0.67477 0.59638,0.17869 1.41835,0.36715 1.8266,0.41882 l 0.74227,0.0939 -0.53997,-0.73035 c -0.29699,-0.4017 -1.54632,-1.43775 -2.77629,-2.30235 -1.22997,-0.86459 -2.23646,-1.65823 -2.23664,-1.76363 -1.8e-4,-0.10541 0.35017,-0.37289 0.77856,-0.59442 0.58175,-0.30084 0.95441,-0.33604 1.47243,-0.13909 0.88933,0.33813 1.71744,0.33806 1.71744,-1.3e-4 0,-0.1451 -0.3924,-0.71064 -0.872,-1.25677 -0.4796,-0.54612 -1.07781,-1.32059 -1.32935,-1.72105 -1.05224,-1.67521 -3.7515,-2.73932 -8.91115,-3.51299 -2.29746,-0.3445 -7.25201,-0.0555 -9.39271,0.54796 -3.71581,1.0474 -8.40928,5.64184 -9.17847,8.9848 -0.10045,0.43656 -0.13231,2.34648 -0.0708,4.24427 0.0985,3.04071 0.21453,3.74774 0.97649,5.95313 z m 1.43151,-9.77434 c 0.52714,-0.75259 0.84234,-0.69963 0.68654,0.11538 -0.17768,0.92952 0.54562,1.637 1.87881,1.8377 1.98633,0.29901 2.55613,0.44131 2.55613,0.63833 0,0.25816 -3.0833,0.0576 -4.14603,-0.26969 -1.07097,-0.32983 -1.55826,-1.48964 -0.97545,-2.32172 z m 3.86471,-3.9633 c 1.16974,-0.49799 3.3081,-0.86166 5.68777,-0.96731 0.76356,-0.0339 1.81544,-0.26433 2.33753,-0.51208 1.29311,-0.61362 2.16485,-0.35383 2.64161,0.78721 0.73733,1.76469 0.43239,3.42129 -0.95141,5.16847 -0.4322,0.5457 -0.78582,1.30247 -0.78582,1.68171 0,0.37924 -0.13394,0.68953 -0.29765,0.68953 -0.4895,0 -0.0408,-1.55123 0.82813,-2.86311 0.62609,-0.94522 0.79244,-1.48616 0.79244,-2.5769 0,-1.70042 -0.72068,-2.84251 -1.42488,-2.25807 -0.23496,0.19499 -0.4272,0.63059 -0.4272,0.96799 0,0.33739 -0.12219,0.68896 -0.27153,0.78126 -0.14935,0.0923 -0.24424,0.57316 -0.21087,1.06859 0.0404,0.5996 -0.14471,1.17856 -0.55358,1.73159 -0.33783,0.45695 -0.69795,1.14396 -0.80026,1.52671 -0.24342,0.91066 -1.39493,1.34932 -2.21153,0.84249 -0.32034,-0.19883 -0.8139,-0.49174 -1.09679,-0.65092 -1.31222,-0.73838 -3.75112,-2.64493 -4.04034,-3.15844 -0.63798,-1.13275 -0.4259,-1.74347 0.78438,-2.25872 z m 1.8599,3.62885 c 3.26908,2.19857 3.10824,2.18613 2.92522,0.22622 -0.19064,-2.04149 0.14058,-2.82837 1.19054,-2.82837 0.40234,0 0.86236,0.13083 1.02226,0.29073 0.21126,0.21126 0.3411,0.0614 0.47497,-0.54809 0.10133,-0.46135 0.12935,-0.8937 0.0623,-0.96079 -0.13512,-0.13512 -5.76125,0.30977 -6.80755,0.53832 -0.90537,0.19776 -1.37609,0.87984 -1.04026,1.50734 0.14418,0.2694 1.12183,1.06799 2.17256,1.77464 z m 4.02708,0.54345 c 0.26596,0.10343 0.71521,-0.64991 1.04752,-1.75654 0.15693,-0.52261 0.0841,-0.59531 -0.59666,-0.59531 -0.74056,0 -0.77407,0.0505 -0.74543,1.12448 0.0165,0.61846 0.14904,1.17078 0.29457,1.22737 z m -6.72569,5.5195 c 0.2967,-0.5094 0.79938,-0.58666 1.50376,-0.23112 0.25268,0.12755 1.2631,0.62568 2.24536,1.10695 0.98227,0.48127 1.78594,0.92053 1.78594,0.97612 0,0.0556 -0.11433,0.31471 -0.25408,0.57582 -0.13974,0.26111 -0.32174,1.52954 -0.40444,2.81874 -0.14956,2.33129 -0.33969,2.85781 -1.45496,4.02913 -0.73597,0.77295 -1.97394,0.71648 -2.01492,-0.0919 -0.0151,-0.29685 -0.22508,-0.95641 -0.46676,-1.4657 -0.45078,-0.94997 -1.21913,-5.04265 -1.21301,-6.46125 0.002,-0.43656 0.12479,-1.00211 0.27311,-1.25677 z m 0.91193,4.03491 c 0.40215,2.59446 0.74804,3.92055 1.16775,4.47698 l 0.46366,0.61469 0.70211,-0.7572 c 0.71631,-0.77251 0.93421,-1.83176 0.41257,-2.00564 -0.29991,-0.1 -0.73711,-1.93002 -0.75727,-3.16983 -0.006,-0.38979 0.18124,-0.90147 0.41685,-1.13708 0.2356,-0.23561 0.38405,-0.47271 0.32987,-0.52688 -0.29699,-0.29699 -2.46693,-0.87153 -2.80364,-0.74232 -0.39997,0.15349 -0.39817,0.23914 0.0681,3.24728 z m 3.21105,-0.38116 c 0.39205,-1.13241 0.23628,-1.59817 -0.29259,-0.87489 -0.18617,0.25461 -0.27657,0.78688 -0.20088,1.18283 0.13457,0.70394 0.14551,0.69712 0.49347,-0.30794 z m 3.0177,5.30276 c 0.52386,-0.6967 0.77563,-1.34139 0.77563,-1.98612 0,-0.52503 0.11075,-1.34077 0.24611,-1.81275 0.14964,-0.52176 0.15142,-1.18836 0.005,-1.70052 -0.29165,-1.01693 -0.12488,-1.26193 0.46052,-0.67653 0.79208,0.79208 0.12761,5.29847 -0.95282,6.462 -0.24558,0.26447 -0.52607,0.68922 -0.62329,0.94388 -0.20231,0.5299 -0.73166,0.62931 -0.70443,0.13229 0.01,-0.1819 0.36715,-0.79491 0.79375,-1.36225 z m 4.3012,11.44413 c 0.7066,0.58643 4.97451,1.39128 7.54227,1.42234 2.33507,0.0282 2.67284,-0.0331 3.87255,-0.70339 2.1932,-1.22534 3.46923,-2.19276 4.62672,-3.50774 1.29925,-1.47602 3.98081,-6.14093 3.98081,-6.92511 0,-0.29975 0.27892,-0.81771 0.61984,-1.15102 1.14471,-1.11919 1.794,-2.31376 1.90578,-3.50628 0.13469,-1.43683 -0.52968,-5.48147 -1.10991,-6.75704 -2.56999,-5.64985 -3.75176,-7.57451 -6.11616,-9.96098 -1.01212,-1.02157 -3.92141,-2.67202 -4.20687,-2.38657 -0.17617,0.17617 1.18698,2.29338 1.47658,2.29338 0.12954,0 0.65503,0.62508 1.16775,1.38906 0.51271,0.76399 1.2982,1.78337 1.74552,2.26529 0.44731,0.48192 0.8133,1.107 0.8133,1.38906 0,0.90717 -0.70521,0.56454 -1.43981,-0.69953 -0.60277,-1.03724 -1.23652,-1.42678 -2.98097,-1.83229 -1.87649,-0.4362 -1.88081,0.0419 -0.011,1.21564 1.73866,1.09144 1.928,1.28523 4.03657,4.1314 0.94851,1.28031 1.81842,2.44689 1.93312,2.59241 0.46056,0.58429 0.53379,1.15126 0.16689,1.29206 -0.24242,0.093 -0.74499,-0.35095 -1.39822,-1.23519 -1.87883,-2.54329 -3.31884,-3.2547 -6.32586,-3.12521 -0.9406,0.0405 -0.74366,0.94417 0.34585,1.587 0.51764,0.30541 1.11714,0.5553 1.33223,0.5553 0.46215,0 1.36146,0.55237 3.08643,1.89573 0.69233,0.53916 1.48416,1.05184 1.75963,1.13927 0.27547,0.0874 0.57834,0.46767 0.67303,0.84497 0.0947,0.3773 0.46372,1.11505 0.82006,1.63944 0.73066,1.07527 0.79358,1.43895 0.31714,1.83332 -0.23692,0.19611 -0.78099,0.0488 -1.91822,-0.5193 -2.57554,-1.28665 -6.68413,-2.8413 -7.96967,-3.01564 -0.65689,-0.0891 -1.51369,-0.078 -1.904,0.0247 -0.65111,0.1713 -0.56797,0.24045 1.00765,0.83814 0.94452,0.3583 2.37327,1.09432 3.175,1.6356 0.80172,0.54129 2.00342,1.29951 2.67044,1.68494 1.59624,0.92237 3.34345,2.83 2.86362,3.12655 -0.36539,0.22582 -0.49958,0.17524 -1.56284,-0.58908 -0.43415,-0.3121 -1.34336,-0.52404 -2.64583,-0.61678 l -1.98437,-0.14129 1.04558,0.406 c 0.57507,0.22331 1.11085,0.49565 1.19062,0.6052 0.0798,0.10955 0.49301,0.37536 0.91831,0.59067 1.54266,0.78103 1.71032,0.90904 1.98759,1.51758 0.38515,0.8453 0.35367,1.38745 -0.0805,1.38745 -0.19933,0 -1.10781,-0.23812 -2.01885,-0.52917 -1.73158,-0.55317 -3.83126,-0.70108 -4.08664,-0.28788 -0.2016,0.32621 1.8345,1.43572 3.72733,2.03108 1.59952,0.50312 2.74056,1.28011 2.74056,1.86619 0,0.33904 -1.51626,0.86583 -2.51354,0.87329 -0.29104,0.002 -1.48166,0.0783 -2.64583,0.16925 -1.54177,0.12041 -2.55822,0.0501 -3.74236,-0.25894 -2.02812,-0.52925 -3.34712,-0.56121 -1.94618,-0.0472 0.50932,0.18689 1.48185,0.42247 2.16117,0.52349 1.38986,0.2067 2.16169,0.82994 1.52598,1.2322 -0.33141,0.20971 -5.90447,0.39721 -7.61087,0.25606 -0.33903,-0.028 -0.78173,0.16714 -0.98377,0.43373 -0.46289,0.61079 -0.46705,0.74803 -0.0336,1.10775 z"
         style="fill:#000000;stroke-width:0.26458332" />
    </g>
  </g>
</svg>
